<svg width="30" height="31" viewBox="0 0 30 31" fill="none" xmlns="http://www.w3.org/2000/svg">
<path d="M15 10.5001L5 20.5001V25.5001H10L20 15.5001M15 10.5001L18.5857 6.91432L18.588 6.9122C19.0815 6.4186 19.3287 6.17136 19.6137 6.07876C19.8649 5.99718 20.1352 5.99718 20.3864 6.07876C20.6711 6.1713 20.9181 6.41825 21.411 6.91115L23.5858 9.0859C24.0808 9.58092 24.3284 9.82855 24.4211 10.114C24.5027 10.365 24.5026 10.6354 24.4211 10.8865C24.3285 11.1717 24.0812 11.4189 23.5869 11.9133L23.5858 11.9143L20 15.5001M15 10.5001L20 15.5001" stroke="#000000" stroke-width="2.5" stroke-linecap="round" stroke-linejoin="round"/>
</svg>
