<svg width="50" height="50" viewBox="0 0 50 50" fill="none" xmlns="http://www.w3.org/2000/svg">
<path d="M41.7557 7.92L32.9957 5C32.9957 7.12173 32.1528 9.15656 30.6525 10.6569C29.1522 12.1571 27.1174 13 24.9957 13C22.874 13 20.8391 12.1571 19.3388 10.6569C17.8385 9.15656 16.9957 7.12173 16.9957 5L8.23569 7.92C7.33045 8.22159 6.56284 8.83683 6.07139 9.65469C5.57995 10.4725 5.39704 11.4391 5.55569 12.38L6.71569 19.32C6.79184 19.7898 7.03305 20.2171 7.39597 20.525C7.75889 20.833 8.21973 21.0014 8.69569 21H12.9957V41C12.9957 43.2 14.7957 45 16.9957 45H32.9957C34.0565 45 35.074 44.5786 35.8241 43.8284C36.5743 43.0783 36.9957 42.0609 36.9957 41V21H41.2957C41.7716 21.0014 42.2325 20.833 42.5954 20.525C42.9583 20.2171 43.1995 19.7898 43.2757 19.32L44.4357 12.38C44.5943 11.4391 44.4114 10.4725 43.92 9.65469C43.4285 8.83683 42.6609 8.22159 41.7557 7.92Z" stroke="#000000" stroke-width="3.20513" stroke-linecap="round" stroke-linejoin="round"/>
</svg>
