<svg width="55" height="55" viewBox="0 0 55 55" fill="none" xmlns="http://www.w3.org/2000/svg">
<g clip-path="url(#clip0_80_440)">
<path d="M44.452 43.8028H10.548C7.48882 43.8028 5 41.314 5 38.2548C5 35.9933 6.35232 33.9779 8.44524 33.1201L26.1082 25.8813V20.7411H27.5C29.3638 20.7411 30.8802 19.2247 30.8802 17.3609C30.8802 15.4971 29.3638 13.9807 27.5 13.9807C25.6362 13.9807 24.1198 15.4971 24.1198 17.3609H21.3363C21.3363 13.9622 24.1013 11.1972 27.5 11.1972C30.8987 11.1972 33.6637 13.9622 33.6637 17.3609C33.6637 20.281 31.6223 22.7334 28.8918 23.3661V25.8812L46.5548 33.1201C48.6477 33.9779 50 35.9934 50 38.2548C50 41.314 47.5112 43.8028 44.452 43.8028ZM27.5 28.3191L9.50083 35.6957C8.45758 36.1233 7.78351 37.1278 7.78351 38.2548C7.78351 39.7791 9.02365 41.0192 10.548 41.0192H44.452C45.9763 41.0192 47.2165 39.7791 47.2165 38.2548C47.2165 37.1278 46.5424 36.1233 45.4992 35.6957L27.5 28.3191Z" fill="#FFFFFF"/>
</g>
<defs>
<clipPath id="clip0_80_440">
<rect width="45" height="45" fill="white" transform="translate(5 5)"/>
</clipPath>
</defs>
</svg>
