<svg width="91" height="100" viewBox="0 0 91 100" fill="#FFFFFF" xmlns="http://www.w3.org/2000/svg">
<path d="M20.5 100V70H12.5C9.16667 70 6.33333 68.8333 4 66.5C1.66667 64.1667 0.5 61.3333 0.5 58C0.5 55.5833 1.16667 53.3542 2.5 51.3125C3.83333 49.2708 5.58333 47.75 7.75 46.75L40.5 32.25V29C37.5 27.9167 35.0833 26.1042 33.25 23.5625C31.4167 21.0208 30.5 18.1667 30.5 15C30.5 10.8333 31.9583 7.29167 34.875 4.375C37.7917 1.45833 41.3333 0 45.5 0C49.6667 0 53.2083 1.45833 56.125 4.375C59.0417 7.29167 60.5 10.8333 60.5 15H50.5C50.5 13.5833 50.0208 12.3958 49.0625 11.4375C48.1042 10.4792 46.9167 10 45.5 10C44.0833 10 42.8958 10.4792 41.9375 11.4375C40.9792 12.3958 40.5 13.5833 40.5 15C40.5 16.4167 40.9792 17.6042 41.9375 18.5625C42.8958 19.5208 44.0833 20 45.5 20C46.9167 20 48.1042 20.4792 49.0625 21.4375C50.0208 22.3958 50.5 23.5833 50.5 25V32.25L83.25 46.75C85.4167 47.75 87.1667 49.2708 88.5 51.3125C89.8333 53.3542 90.5 55.5833 90.5 58C90.5 61.3333 89.3333 64.1667 87 66.5C84.6667 68.8333 81.8333 70 78.5 70H70.5V100H20.5ZM12.5 60H20.5V55H70.5V60H78.5C79.0833 60 79.5625 59.7917 79.9375 59.375C80.3125 58.9583 80.5 58.4167 80.5 57.75C80.5 57.3333 80.3958 56.9792 80.1875 56.6875C79.9792 56.3958 79.6667 56.1667 79.25 56L45.5 41L11.75 56C11.3333 56.1667 11.0208 56.3958 10.8125 56.6875C10.6042 56.9792 10.5 57.3333 10.5 57.75C10.5 58.4167 10.6875 58.9583 11.0625 59.375C11.4375 59.7917 11.9167 60 12.5 60Z" fill="#000000"/>
</svg>
