<svg width="49" height="38" viewBox="0 0 49 38" fill="none" xmlns="http://www.w3.org/2000/svg">
<path d="M24.5169 3.81349L19.0764 2C19.0764 3.31772 18.553 4.58147 17.6212 5.51324C16.6894 6.44501 15.4257 6.96847 14.108 6.96847C12.7902 6.96847 11.5265 6.44501 10.5947 5.51324C9.66296 4.58147 9.13949 3.31772 9.13949 2L3.69902 3.81349C3.13682 4.0008 2.66009 4.3829 2.35487 4.89083C2.04965 5.39877 1.93606 5.99908 2.03458 6.58341L2.75501 10.8936C2.80231 11.1853 2.95211 11.4507 3.17751 11.642C3.4029 11.8332 3.68911 11.9378 3.98471 11.9369H6.65526V24.3581C6.65526 25.7244 7.77317 26.8423 9.13949 26.8423H19.0764C19.7353 26.8423 20.3672 26.5806 20.833 26.1147C21.2989 25.6488 21.5607 25.017 21.5607 24.3581V11.9369H24.2312C24.5268 11.9378 24.813 11.8332 25.0384 11.642C25.2638 11.4507 25.4136 11.1853 25.4609 10.8936L26.1813 6.58341C26.2799 5.99908 26.1663 5.39877 25.8611 4.89083C25.5558 4.3829 25.0791 4.0008 24.5169 3.81349Z" stroke="#FFFFFF" stroke-width="2.17745" stroke-linecap="round" stroke-linejoin="round"/>
<path d="M28.9752 4.50936C28.9694 4.36169 28.9852 4.2139 29.0216 4.07506C29.058 3.93622 29.1143 3.80924 29.1869 3.7019C29.2596 3.59456 29.3472 3.50911 29.4443 3.45079C29.5414 3.39247 29.6459 3.36251 29.7516 3.36273H46.2226C46.3282 3.36251 46.4328 3.39247 46.5298 3.45079C46.6269 3.50911 46.7145 3.59456 46.7872 3.7019C46.8598 3.80924 46.9161 3.93622 46.9525 4.07506C46.9889 4.2139 47.0047 4.36169 46.9989 4.50936L45.7917 34.9412C45.7808 35.219 45.6942 35.4803 45.5498 35.6714C45.4053 35.8625 45.2141 35.9687 45.0154 35.9683H41.2657C41.0755 35.9684 40.8919 35.8706 40.7497 35.6936C40.6076 35.5167 40.5168 35.2728 40.4946 35.0083L38.7582 14.349C38.6508 13.0701 37.3233 13.0701 37.2159 14.349L35.4795 35.0083C35.4573 35.2728 35.3665 35.5167 35.2244 35.6936C35.0822 35.8706 34.8986 35.9684 34.7084 35.9683H30.9587C30.76 35.9687 30.5688 35.8625 30.4244 35.6714C30.2799 35.4803 30.1933 35.219 30.1824 34.9412L28.9752 4.50936Z" stroke="#FFFFFF" stroke-width="2.34063"/>
</svg>
