<svg width="39" height="33" viewBox="0 0 39 33" fill="none" xmlns="http://www.w3.org/2000/svg">
<path d="M5.65614 33C4.98503 33.0007 4.31398 32.9871 3.64342 32.9591L3.32982 32.8861C2.51959 32.6927 1.78143 32.2629 1.20465 31.6488C0.627868 31.0347 0.237171 30.2625 0.0798246 29.4258L0.0285087 29.1571C0.0142544 28.8476 0 27.9716 0 27.2094V1.38704C0.00150522 1.01915 0.14505 0.666799 0.399296 0.406927C0.653542 0.147056 0.997838 0.00076805 1.35702 0H31.6732C32.0322 0.000771524 32.3762 0.147154 32.63 0.407108C32.8837 0.667063 33.0267 1.01941 33.0274 1.38704V5.85187H37.5632C37.9438 5.8534 38.3084 6.00895 38.5775 6.28462C38.8466 6.56029 38.9985 6.93374 39 7.32359V28.3249C39 29.564 38.5194 30.7524 37.664 31.6286C36.8086 32.5048 35.6484 32.9971 34.4386 32.9971L5.65614 33ZM5.65614 29.7616H30.0939C29.9481 29.2983 29.8741 28.8145 29.8743 28.3278V21.9795C29.8689 21.8735 29.866 21.7674 29.8658 21.6612V3.23546H16.5137H3.16162V27.2094C3.16162 27.846 3.17018 28.4651 3.17873 28.798L3.18443 28.8213C3.22696 29.0411 3.33015 29.2437 3.48175 29.4052C3.63334 29.5667 3.82698 29.6802 4.03969 29.7324L4.0682 29.7382C4.44737 29.7499 5.08882 29.7616 5.65614 29.7616ZM26.3706 8.33979H6.52851V11.5782H26.3706V8.33979ZM14.9671 15.2984H6.52851V25.6121H14.9671V15.2984ZM26.3763 15.3743H18.1686V18.6127H26.3735L26.3763 15.3743ZM26.3763 22.4117H18.1686V25.6472H26.3735L26.3763 22.4117ZM33.036 9.08733V28.3278C33.036 28.7089 33.1837 29.0743 33.4468 29.3437C33.7098 29.6131 34.0666 29.7645 34.4386 29.7645C34.8106 29.7645 35.1674 29.6131 35.4304 29.3437C35.6935 29.0743 35.8412 28.7089 35.8412 28.3278V9.08441L33.036 9.08733Z" fill="#E5989B"/>
</svg>
